<?xml version="1.0" standalone="no"?><!DOCTYPE svg PUBLIC "-//W3C//DTD SVG 1.1//EN" "http://www.w3.org/Graphics/SVG/1.1/DTD/svg11.dtd"><svg t="1535340242108" class="icon" style="" viewBox="0 0 1024 1024" version="1.1" xmlns="http://www.w3.org/2000/svg" p-id="5015" xmlns:xlink="http://www.w3.org/1999/xlink" width="200" height="200"><defs><style type="text/css"></style></defs><path d="M896 1003.52H143.36c-14.336 0-25.6-11.264-25.6-25.6V35.84c0-14.336 11.264-25.6 25.6-25.6h752.64c14.336 0 25.6 11.264 25.6 25.6v942.08c0 14.336-11.264 25.6-25.6 25.6zM168.96 952.32h701.44V61.44H168.96v890.88z" p-id="5016"></path><path d="M450.56 392.704H272.384c-14.336 0-25.6-11.264-25.6-25.6s11.264-25.6 25.6-25.6H450.56c14.336 0 25.6 11.264 25.6 25.6s-11.264 25.6-25.6 25.6zM737.28 577.024H272.384c-14.336 0-25.6-11.264-25.6-25.6s11.264-25.6 25.6-25.6H737.28c14.336 0 25.6 11.264 25.6 25.6s-11.264 25.6-25.6 25.6zM737.28 761.856H272.384c-14.336 0-25.6-11.264-25.6-25.6s11.264-25.6 25.6-25.6H737.28c14.336 0 25.6 11.264 25.6 25.6s-11.264 25.6-25.6 25.6zM657.408 387.584c-6.656 0-13.312-2.56-17.92-7.68L547.84 288.256c-10.24-10.24-10.24-26.112 0-36.352s26.112-10.24 36.352 0l73.728 73.728L788.48 195.072c10.24-10.24 26.112-10.24 36.352 0s10.24 26.112 0 36.352L675.84 380.416c-5.12 4.608-11.776 7.168-18.432 7.168z" p-id="5017"></path></svg>