<?xml version="1.0" standalone="no"?><!DOCTYPE svg PUBLIC "-//W3C//DTD SVG 1.1//EN" "http://www.w3.org/Graphics/SVG/1.1/DTD/svg11.dtd"><svg t="1547110421247" class="icon" style="" viewBox="0 0 1024 1024" version="1.1" xmlns="http://www.w3.org/2000/svg" p-id="760" xmlns:xlink="http://www.w3.org/1999/xlink" width="200" height="200"><defs><style type="text/css"></style></defs><path d="M512.003387 287.999483c54.049692 0 113.047679 12.603291 175.355569 37.459541 50.885793 20.299303 103.963511 48.725099 157.759203 84.487921 48.293111 32.103717 88.173743 64.262373 113.125949 85.587083a1087.98429 1087.98429 0 0 1 18.830618 16.465972 1086.374494 1086.374494 0 0 1-18.830618 16.465972c-24.952206 21.32471-64.832838 53.483366-113.125949 85.587083-53.795692 35.762822-106.873786 64.188619-157.759203 84.487921-62.30789 24.85625-121.305877 37.459542-175.355569 37.459541-53.968035 0-112.917857-12.605173-175.212201-37.465562-50.876762-20.303818-103.967274-48.735636-157.796456-84.505231-48.319828-32.108609-88.237713-64.270651-113.216636-85.596866a1092.099842 1092.099842 0 0 1-18.846046-16.461833 1082.250663 1082.250663 0 0 1 18.813308-16.467854c24.925113-21.322828 64.768491-53.478474 113.034509-85.578051 53.762954-35.756048 106.828631-64.176201 157.723078-84.471364 62.321813-24.852864 121.368719-37.454273 175.500444-37.454273m0-31.999859c-255.881843 0-511.624833 255.625962-511.999248 256.000376 0.375544 0.374415 256.869244 256.000376 511.999248 256.000376 255.505923 0 511.624833-255.625962 512-256.000376-0.375167-0.374415-256.494077-256.000376-512-256.000376z m512.000376 256v0.000752-0.000752z m-1024.000376 0v0.000752l0.000376-0.000376-0.000376-0.000376z" fill="#889AA8" p-id="761"></path><path d="M512.003387 383.999812c17.293824 0 34.053684 3.379893 49.813724 10.045981 15.238118 6.445203 28.93041 15.678761 40.696066 27.444793 11.765656 11.765656 20.999214 25.457572 27.444792 40.695689 6.665712 15.760041 10.045605 32.5199 10.045606 49.813725s-3.379893 34.053684-10.045606 49.813725c-6.445579 15.238118-15.679137 28.93041-27.444792 40.695689-11.766032 11.766032-25.457948 20.99959-40.696066 27.444793-15.760041 6.666089-32.5199 10.045982-49.813724 10.045981s-34.053684-3.379893-49.813349-10.045981c-15.238118-6.445203-28.93041-15.678761-40.696065-27.444793-11.765656-11.765656-20.999214-25.457572-27.444793-40.695689-6.665712-15.760041-10.045605-32.5199-10.045605-49.813725s3.379893-34.053684 10.045605-49.813725c6.445579-15.238118 15.679137-28.93041 27.444793-40.695689 11.766032-11.766032 25.457948-20.99959 40.696065-27.444793 15.759664-6.666089 32.519524-10.045982 49.813349-10.045981m0-31.999859c-88.365278 0-159.999671 71.634769-159.999671 160.000047s71.634393 160.000047 159.999671 160.000047c88.365654 0 160.000047-71.634769 160.000047-160.000047s-71.634393-160.000047-160.000047-160.000047z" fill="#889AA8" p-id="762"></path></svg>